<svg xmlns="http://www.w3.org/2000/svg" viewBox="0 0 64 64" fill="none"><rect width="64" height="64" rx="14" fill="#0c1913"/><circle cx="32" cy="32" r="27" stroke="#62c68b" stroke-width="3"/><path d="M14.5 34.5c0-12.2 7.2-20 17.5-20 8.5 0 15.3 5.4 17.2 13M19 39.5c-1.6-8.4 3-17.2 11.5-19.2 6.4-1.5 12.7 1.7 15.5 7.2M24 42.5c-2.3-6.5.8-13.5 7-15.5 4.7-1.5 9.6.5 12 4.5M29 44c-2-3.8-.6-8.3 3.2-9.8 2.8-1.1 5.9 0 7.6 2.4" stroke="#f5f3ea" stroke-width="2.6" stroke-linecap="round"/><path d="M33 49c7.3-1 13-5.5 16-12.5-6.5-.2-12.4 2-16.5 6.6M32.5 43c3.1.6 6 2.2 8.3 4.5" stroke="#d6a84b" stroke-width="3" stroke-linecap="round" stroke-linejoin="round"/></svg>
